<svg width="72" height="72" viewBox="0 0 72 72" fill="none" xmlns="http://www.w3.org/2000/svg">
<g clip-path="url(#clip0_25_821)">
<path d="M42.393 72H29.607C29.148 72 28.738 71.712 28.582 71.28L26.52 65.455L21.873 63.524L16.364 66.185C15.95 66.382 15.458 66.299 15.131 65.978L14.105 64.964C10.56 61.462 10.56 61.462 7.058 57.916L6.044 56.825C5.734 56.512 5.644 56.043 5.815 55.636L8.444 50.182L7.156 47.018L6.545 45.48L0.72 43.418C0.288 43.262 0 42.852 0 42.393V29.607C0 29.148 0.288 28.738 0.72 28.582L6.545 26.52L7.735 23.651L8.455 21.818L5.815 16.255C5.618 15.841 5.701 15.348 6.022 15.022L7.036 13.996C10.549 10.484 10.549 10.484 14.084 6.993L15.109 5.978C15.45 5.662 15.953 5.596 16.364 5.815L21.895 8.444L24.175 7.505L26.52 6.545L28.582 0.72C28.738 0.288 29.148 0 29.607 0H42.393C42.852 0 43.262 0.288 43.418 0.72L45.48 6.545L50.182 8.444L55.636 5.815C56.05 5.618 56.542 5.701 56.869 6.022L57.895 7.036C61.44 10.527 61.44 10.527 64.942 14.029L65.956 15.12C66.277 15.447 66.36 15.939 66.164 16.353L63.556 21.818C63.764 22.342 63.971 22.822 64.156 23.28L64.833 24.895L65.487 26.476L71.28 28.538C71.712 28.694 72 29.104 72 29.564V42.393C72 42.852 71.712 43.262 71.28 43.418L65.455 45.48L64.811 47.018L63.556 50.182L66.185 55.636C66.382 56.05 66.299 56.542 65.978 56.869L64.975 57.96C61.462 61.505 61.462 61.505 57.916 65.007L56.891 66.022C56.564 66.343 56.072 66.426 55.658 66.229L50.182 63.556L45.48 65.455L43.418 71.28C43.262 71.712 42.852 72 42.393 72ZM30.393 69.818H41.629L43.636 64.298C43.742 64.011 43.964 63.781 44.247 63.665L49.778 61.353C50.063 61.225 50.388 61.225 50.673 61.353L55.953 63.862L56.433 63.393C59.956 59.891 59.956 59.891 63.458 56.367L63.938 55.876L61.418 50.607C61.29 50.323 61.29 49.997 61.418 49.713L62.902 46.167L63.731 44.182C63.849 43.903 64.078 43.685 64.364 43.582L69.818 41.618V30.382L64.298 28.364C64.011 28.258 63.781 28.036 63.665 27.753L62.825 25.735C62.596 25.2 62.367 24.644 62.138 24.109C61.909 23.575 61.647 22.909 61.353 22.222C61.225 21.937 61.225 21.612 61.353 21.327L63.873 16.015L63.393 15.524C59.902 12.033 59.902 12.033 56.367 8.542L55.887 8.073L50.607 10.582C50.326 10.706 50.005 10.706 49.724 10.582L44.204 8.335C43.937 8.209 43.732 7.981 43.636 7.702L41.629 2.182H30.382L28.364 7.702C28.26 7.987 28.043 8.216 27.764 8.335L24.982 9.513L22.265 10.604C21.981 10.732 21.655 10.732 21.371 10.604L16.091 8.095L15.611 8.564C12.087 12.055 12.087 12.055 8.585 15.556L8.105 16.036L10.625 21.349C10.753 21.634 10.753 21.959 10.625 22.244L9.698 24.425L8.313 27.698C8.197 27.982 7.967 28.203 7.68 28.309L2.182 30.382V41.618L7.702 43.636C7.987 43.74 8.216 43.957 8.335 44.236L9.164 46.222C9.644 47.389 10.08 48.404 10.647 49.778C10.775 50.063 10.775 50.388 10.647 50.673L8.105 55.898L8.585 56.389C12.087 59.913 12.087 59.913 15.611 63.415L16.091 63.884L21.371 61.375C21.655 61.247 21.981 61.247 22.265 61.375L27.796 63.687C28.08 63.803 28.301 64.033 28.407 64.32L30.393 69.818Z" fill="#FF0000"/>
<path d="M36.2415 57.753C27.5395 57.753 19.6945 52.511 16.3645 44.471C13.0355 36.431 14.8785 27.177 21.0335 21.025C27.1885 14.873 36.4425 13.035 44.4815 16.369C52.5195 19.702 57.7585 27.549 57.7535 36.252C57.7355 48.123 48.1135 57.741 36.2415 57.753ZM36.2415 16.91C25.5665 16.91 16.9125 25.562 16.9105 36.237C16.9085 46.912 25.5595 55.568 36.2335 55.572C46.9085 55.576 55.5665 46.926 55.5725 36.252C55.5605 25.579 46.9145 16.928 36.2415 16.91Z" fill="#FF0000"/>
<path d="M29.5204 41.848C29.2894 41.848 29.0644 41.776 28.8764 41.64L22.2654 36.753C21.9874 36.549 21.8214 36.226 21.8184 35.88C21.8174 35.531 21.9844 35.203 22.2654 34.997L28.8764 30.109C29.3614 29.751 30.0454 29.853 30.4044 30.338C30.7624 30.823 30.6604 31.507 30.1754 31.866L24.7204 35.88L30.1754 39.884C30.4084 40.056 30.5634 40.314 30.6064 40.6C30.6494 40.887 30.5764 41.178 30.4044 41.411C30.1954 41.689 29.8674 41.851 29.5204 41.848ZM42.7424 41.848C42.3954 41.851 42.0664 41.689 41.8584 41.411C41.6864 41.178 41.6134 40.887 41.6564 40.6C41.6994 40.314 41.8544 40.056 42.0874 39.884L47.5424 35.88L42.0874 31.866C41.6024 31.507 41.5004 30.823 41.8584 30.338C42.2174 29.853 42.9004 29.751 43.3854 30.109L49.9964 34.997C50.2784 35.203 50.4454 35.531 50.4444 35.88C50.4414 36.226 50.2754 36.549 49.9964 36.753L43.3854 41.64C43.1984 41.776 42.9734 41.848 42.7424 41.848ZM32.1824 46.658C31.8194 46.657 31.4814 46.475 31.2804 46.173C31.0784 45.871 31.0404 45.489 31.1784 45.153L39.0654 25.768C39.2944 25.21 39.9324 24.944 40.4894 25.173C41.0464 25.402 41.3134 26.039 41.0844 26.597L33.1964 45.971C33.0314 46.387 32.6294 46.659 32.1824 46.658Z" fill="#FF0000"/>
</g>
<defs>
<clipPath id="clip0_25_821">
<rect width="72" height="72" fill="white"/>
</clipPath>
</defs>
</svg>
