<svg width="62" height="72" viewBox="0 0 62 72" fill="none" xmlns="http://www.w3.org/2000/svg">
<g clip-path="url(#clip0_25_814)">
<path d="M47.775 71.997H4.624C2.07 71.997 0 69.893 0 67.301V12.208C0 9.616 2.07 7.513 4.624 7.513H11.225C11.626 6.067 12.935 5.008 14.487 5.008H19.8C20.241 2.169 22.664 0 25.584 0C28.501 0 30.924 2.169 31.366 5.008H36.678C38.231 5.008 39.539 6.066 39.939 7.513H46.542C49.096 7.513 51.166 9.616 51.166 12.209V42.828C53.303 44.998 56.18 46.651 60.029 46.332C60.286 46.309 60.54 46.401 60.731 46.579C60.921 46.757 61.028 47.007 61.028 47.268V55.487C61.028 61.895 57.384 67.714 51.706 70.388L48.735 71.784C48.428 71.928 48.103 72 47.777 72L47.775 71.997ZM49.315 12.209C49.315 10.653 48.076 9.391 46.542 9.391H40.068V12.522H45.309C45.819 12.522 46.235 12.941 46.235 13.46V40.678C46.652 40.287 47.203 40.069 47.775 40.068C48.348 40.068 48.899 40.29 49.315 40.679V12.209ZM14.486 6.887C13.635 6.887 12.947 7.588 12.947 8.452V13.46C12.947 13.877 13.109 14.275 13.397 14.569C13.684 14.861 14.077 15.026 14.487 15.025H36.676C37.087 15.025 37.478 14.859 37.766 14.569C38.055 14.275 38.217 13.877 38.217 13.46V8.452C38.217 7.588 37.525 6.887 36.676 6.887H30.515C30.268 6.885 30.031 6.785 29.858 6.609C29.685 6.433 29.588 6.195 29.591 5.948C29.591 3.7 27.797 1.878 25.584 1.878C23.371 1.878 21.577 3.7 21.577 5.948C21.577 6.468 21.164 6.887 20.651 6.887H14.486ZM19.416 11.895C18.906 11.895 18.493 11.476 18.493 10.956C18.493 10.436 18.906 10.017 19.417 10.017H31.747C32.258 10.017 32.67 10.437 32.67 10.956C32.67 11.475 32.257 11.895 31.747 11.895H19.416ZM37.567 65.11C36.366 63.409 35.496 61.498 35 59.476H10.787C10.277 59.476 9.863 59.056 9.863 58.536C9.863 58.017 10.277 57.597 10.787 57.597H34.651C34.564 56.897 34.521 56.193 34.522 55.487V54.467H10.787C10.277 54.467 9.863 54.047 9.863 53.528C9.863 53.009 10.277 52.589 10.787 52.589H34.521V49.459H10.787C10.277 49.459 9.863 49.039 9.863 48.52C9.863 48 10.277 47.58 10.787 47.58H34.521V47.268C34.521 47.004 34.63 46.754 34.817 46.579C35.005 46.4 35.261 46.31 35.519 46.331C39.369 46.651 42.243 44.998 44.381 42.825L44.385 14.399H39.939C39.782 14.963 39.485 15.478 39.075 15.896C38.442 16.539 37.578 16.902 36.676 16.903H14.488C13.589 16.903 12.725 16.54 12.089 15.896C11.679 15.478 11.382 14.963 11.225 14.399H6.78V65.109L37.567 65.11ZM25.584 22.538C31.538 22.538 36.37 27.446 36.37 33.494C36.37 39.542 31.538 44.45 25.584 44.45C19.63 44.45 14.797 39.542 14.797 33.494C14.797 27.446 19.631 22.538 25.584 22.538ZM25.584 24.416C20.651 24.416 16.644 28.486 16.644 33.494C16.644 38.503 20.651 42.572 25.584 42.572C30.517 42.572 34.521 38.503 34.521 33.494C34.521 28.486 30.514 24.416 25.584 24.416ZM20.616 34.158C20.253 33.79 20.253 33.199 20.616 32.831C20.787 32.655 21.023 32.556 21.269 32.556C21.515 32.556 21.75 32.655 21.922 32.831L24.131 35.074C24.188 35.133 24.267 35.166 24.349 35.166C24.431 35.166 24.509 35.133 24.566 35.074L29.243 30.326C29.415 30.151 29.651 30.052 29.897 30.052C30.143 30.052 30.379 30.151 30.552 30.326C30.912 30.693 30.912 31.287 30.552 31.653L25.875 36.402C25.474 36.814 24.924 37.046 24.35 37.046C23.776 37.046 23.226 36.814 22.826 36.402L20.616 34.158ZM47.776 70.118C47.839 70.119 47.901 70.105 47.957 70.078L50.928 68.682C55.958 66.315 59.179 61.162 59.179 55.487V48.25C54.083 48.294 50.527 45.339 48.116 42.121C48.037 42.013 47.912 41.95 47.779 41.949C47.646 41.949 47.52 42.011 47.44 42.118C45.024 45.339 41.471 48.294 36.374 48.253V55.49C36.374 61.166 39.599 66.322 44.626 68.685L47.596 70.081C47.652 70.109 47.716 70.121 47.778 70.121L47.776 70.118ZM41.573 56.696C41.214 56.33 41.214 55.734 41.573 55.369C41.933 55.003 42.519 55.002 42.882 55.369L45.708 58.239C45.766 58.298 45.845 58.331 45.928 58.331C46.01 58.331 46.089 58.298 46.147 58.239L52.674 51.615C52.845 51.439 53.081 51.34 53.326 51.34C53.572 51.34 53.807 51.439 53.979 51.615C54.342 51.981 54.342 52.577 53.979 52.942L47.456 59.569C47.055 59.98 46.505 60.211 45.931 60.211C45.357 60.211 44.808 59.98 44.406 59.569L41.58 56.699L41.573 56.696ZM4.623 9.391C3.089 9.391 1.85 10.652 1.85 12.208V67.301C1.85 68.857 3.089 70.118 4.623 70.118H43.301C41.744 69.312 40.329 68.254 39.116 66.988H5.857C5.342 66.984 4.928 66.564 4.931 66.049L4.934 13.46C4.934 12.94 5.347 12.521 5.86 12.521H11.101V9.391H4.623Z" fill="#FF0000"/>
</g>
<defs>
<clipPath id="clip0_25_814">
<rect width="61.028" height="72" fill="white"/>
</clipPath>
</defs>
</svg>
